<svg version="1" xmlns="http://www.w3.org/2000/svg" width="85.333" height="85.333" viewBox="0 0 64.000000 64.000000"><path d="M24.5 1.5C14.8 3.7 7.5 9.7 3.1 19 .9 23.6.5 25.9.6 32.5.7 42.2 3 48.1 9.2 54.3c6.8 6.8 12.7 9.1 22.8 9.2 7.3 0 9.2-.4 13.6-2.7 19-10 23.8-34.2 9.8-49.7-7.9-8.8-19.2-12.3-30.9-9.6zM42.2 5c3.4 1.2 7.3 3.8 10.1 6.6 15 14.8 9.1 41.4-10.7 48-10.7 3.6-21.1 1.4-29.5-6.2C-2.8 40 .5 15.8 18.5 6.4 26.2 2.5 34.2 2 42.2 5z"/><path d="M27.5 16.2c-1.4 1.1-2.5 2.9-2.5 4.1-.1 5.1-4.1 6.4-9.9 3.1-3.2-1.8-4.1-2-4.1-.8 0 .8.7 1.7 1.5 2 .8.4 1.2 1 .9 1.5-.3.5.2 1.2 1.1 1.5 1.3.5 1.5 1.5 1 4.5-.6 3.3-.4 3.8.9 3.3 1.2-.5 1.6 0 1.6 2 0 2.8 4.1 5.6 7.3 4.8 1.1-.2 3.5-.1 5.4.3 3 .5 3.4 1 3.1 3-1 5.2 9.8 4.6 13.1-.7 5.4-8.6 6-12.1 2.7-15.7-.9-1-1.6-2.2-1.5-2.7.6-3.6-.3-6.5-2.3-7.3-5.5-2.2-7-2.7-12-4-3.2-.7-4.2-.6-6.3 1.1z"/></svg>